<svg width="48" height="48" fill="none" viewBox="0 0 48 48" xmlns="http://www.w3.org/2000/svg">
<path fill="#fff" d="M41.282 24h-11v3.143h7.543c-1.1 4.715-4.557 8.643-9.114 10.215L10.64 19.286c1.885-5.5 7.228-9.428 13.357-9.428 4.714 0 8.957 2.357 11.628 5.971l2.357-2.043c-3.142-4.243-8.171-7.071-13.985-7.071-8.172 0-15.086 5.814-16.815 13.514l20.743 20.743c7.543-1.886 13.357-8.8 13.357-16.971zm-34.571.158c0 4.4 1.729 8.643 5.028 11.943 3.3 3.3 7.7 5.028 11.943 5.028L6.711 24.158z"></path><path fill="#639" d="M24 2C11.9 2 2 11.9 2 24s9.9 22 22 22 22-9.9 22-22S36.1 2 24 2zM11.743 36.257c-3.3-3.3-5.029-7.7-5.029-11.943l17.129 16.972c-4.4-.157-8.8-1.729-12.1-5.029zm16.028 4.557L7.186 20.23C8.914 12.529 15.829 6.714 24 6.714c5.814 0 10.843 2.829 13.986 7.072l-2.357 2.043C32.957 12.214 28.714 9.857 24 9.857c-6.129 0-11.314 3.929-13.357 9.429l18.071 18.071c4.557-1.571 8.015-5.5 9.115-10.214h-7.543V24h11c0 8.171-5.815 15.086-13.515 16.814z"></path>
</svg>