<svg width="96" height="48" fill="none" viewBox="0 0 96 48" xmlns="http://www.w3.org/2000/svg">
<path fill="#000" d="M33.663 16.442h12.38v.986H34.798v7.422h10.575v.986H34.798v8.149h11.374v.986H33.663V16.442zm13.49 0h1.315l5.829 8.148 5.957-8.148 8.104-10.35-13.313 19.355 6.86 9.524h-1.367l-6.241-8.668-6.267 8.668h-1.342l6.912-9.524-6.447-9.005zm15.242.986v-.986h14.108v.986h-6.5v17.543H68.87V17.428h-6.473zm-44.22-.986h1.42l19.56 29.335L31.07 34.97 19.362 17.843l-.052 17.128h-1.134V16.442zM76.39 33.687a.401.401 0 01-.406-.412c0-.233.174-.413.406-.413a.4.4 0 01.405.413.4.4 0 01-.405.412zm1.115-1.086h.607c.009.33.25.551.602.551.395 0 .618-.238.618-.684v-2.825h.619v2.828c0 .804-.464 1.266-1.232 1.266-.72 0-1.214-.449-1.214-1.136zm3.254-.035h.613c.052.379.422.62.955.62.496 0 .86-.258.86-.612 0-.305-.23-.488-.758-.612l-.514-.125c-.72-.169-1.048-.518-1.048-1.105 0-.712.58-1.186 1.448-1.186.81 0 1.4.474 1.436 1.147h-.602c-.058-.368-.378-.599-.842-.599-.488 0-.814.236-.814.596 0 .285.21.449.73.57l.438.109c.817.19 1.154.523 1.154 1.124 0 .765-.592 1.244-1.535 1.244-.883 0-1.477-.457-1.521-1.172z"></path>
</svg>